<svg xmlns="http://www.w3.org/2000/svg" xmlns:xlink="http://www.w3.org/1999/xlink" width="500" zoomAndPan="magnify" viewBox="0 0 375 262.499992" height="350" preserveAspectRatio="xMidYMid meet" version="1.2"><defs><clipPath id="f3fee3ada8"><path d="M 0.355469 6.550781 L 202 6.550781 L 202 215 L 0.355469 215 Z M 0.355469 6.550781 "/></clipPath><clipPath id="ac8ec18c8d"><path d="M 166 6.550781 L 374.640625 6.550781 L 374.640625 255.824219 L 166 255.824219 Z M 166 6.550781 "/></clipPath></defs><g id="142e66bd0b"><g clip-rule="nonzero" clip-path="url(#f3fee3ada8)"><path style=" stroke:none;fill-rule:evenodd;fill:#ffffff;fill-opacity:1;" d="M 104.515625 6.574219 L 201.765625 6.574219 C 185.40625 17.386719 171.746094 31.949219 162.003906 49.035156 L 104.515625 49.035156 C 70.582031 49.035156 42.820312 76.800781 42.820312 110.734375 C 42.820312 144.664062 70.582031 172.429688 104.515625 172.429688 L 145.777344 172.429688 L 145.777344 214.890625 L 104.515625 214.890625 C 47.230469 214.890625 0.355469 168.019531 0.355469 110.734375 C 0.355469 53.445312 47.230469 6.574219 104.515625 6.574219 Z M 104.515625 6.574219 "/></g><g clip-rule="nonzero" clip-path="url(#ac8ec18c8d)"><path style=" stroke:none;fill-rule:evenodd;fill:#ffffff;fill-opacity:1;" d="M 270.484375 6.574219 C 328.007812 6.574219 374.644531 53.207031 374.644531 110.734375 C 374.644531 165.789062 331.628906 211.53125 276.621094 214.703125 C 275.777344 214.753906 274.925781 214.792969 274.078125 214.824219 C 272.886719 214.824219 271.683594 214.890625 270.484375 214.890625 L 229.332031 214.890625 L 229.332031 172.429688 L 270.484375 172.429688 C 270.792969 172.429688 271.097656 172.425781 271.40625 172.417969 C 272.96875 172.394531 274.519531 172.316406 276.054688 172.175781 L 276.257812 172.15625 C 276.640625 172.121094 277.023438 172.082031 277.40625 172.035156 C 277.644531 172.011719 277.882812 171.980469 278.117188 171.949219 L 278.683594 171.878906 C 279.019531 171.832031 279.355469 171.785156 279.6875 171.738281 L 279.867188 171.707031 C 304.5 167.90625 324.445312 149.394531 330.375 125.507812 L 330.394531 125.507812 C 331.558594 120.773438 332.179688 115.824219 332.179688 110.730469 C 332.179688 76.65625 304.558594 49.035156 270.484375 49.035156 C 236.410156 49.035156 208.785156 76.65625 208.785156 110.730469 L 208.785156 110.84375 C 208.792969 113.273438 208.941406 115.664062 209.214844 118.019531 L 208.785156 118.019531 L 208.785156 230.914062 L 166.324219 255.429688 L 166.324219 110.730469 C 166.324219 53.203125 212.957031 6.570312 270.480469 6.570312 Z M 270.484375 6.574219 "/></g></g></svg>